<svg xmlns="http://www.w3.org/2000/svg" width="1024" height="1024" viewBox="0 0 1024 1024">
  <defs>
    <linearGradient id="bg" x1="0" y1="0" x2="1" y2="1">
      <stop offset="0%" stop-color="#1976D2"/>
      <stop offset="100%" stop-color="#42A5F5"/>
    </linearGradient>
    <filter id="shadow" x="-20%" y="-20%" width="140%" height="140%">
      <feDropShadow dx="0" dy="12" stdDeviation="24" flood-color="#000" flood-opacity="0.15"/>
    </filter>
  </defs>
  <rect x="64" y="64" width="896" height="896" rx="196" ry="196" fill="url(#bg)"/>

  <!-- Plug + Cable symbol -->
  <g filter="url(#shadow)" fill="#FFF" stroke="#FFF" stroke-width="8" stroke-linejoin="round">
    <!-- Plug body -->
    <rect x="360" y="420" width="304" height="192" rx="36" ry="36"/>
    <!-- Prongs -->
    <rect x="408" y="360" width="32" height="72" rx="10"/>
    <rect x="584" y="360" width="32" height="72" rx="10"/>
    <!-- Cable coming out to the right and curving down -->
    <path d="M 664 516 C 760 516 792 584 792 640 C 792 760 664 784 592 744 C 520 704 496 640 408 640 C 344 640 312 676 304 716" fill="none" stroke="#FFF" stroke-width="36" stroke-linecap="round"/>
  </g>

  <!-- Subtle inner highlight -->
  <rect x="64" y="64" width="896" height="896" rx="196" ry="196" fill="none" stroke="#FFFFFF" stroke-opacity="0.12" stroke-width="8"/>
</svg>

