<svg version="1.1" xmlns="http://www.w3.org/2000/svg" viewBox="0 0 1780 990" width="1780" height="990"><!-- svg-source:excalidraw --><metadata></metadata><defs><style class="style-fonts">
      </style></defs><rect x="0" y="0" width="1780" height="990" fill="#ffffff"></rect><g stroke-opacity="0.2" fill-opacity="0.2" stroke-linecap="round" transform="translate(10 10) rotate(0 250 290)"><path d="M32 0 C129.56 -1.85, 222.22 -1.23, 468 0 C492.09 -2.71, 500.43 14.22, 500 32 C497.6 199.98, 497.05 368.76, 500 548 C497.73 572.64, 491.56 577.97, 468 580 C322.01 578.48, 176.76 577.87, 32 580 C7.68 577.22, 0.36 571.72, 0 548 C0.42 421.52, 1.74 298.26, 0 32 C2.2 9.91, 9.94 -0.48, 32 0" stroke="none" stroke-width="0" fill="#b2f2bb"></path><path d="M32 0 C119.64 0.04, 206.24 0.14, 468 0 M32 0 C150.69 0.48, 269.06 1.1, 468 0 M468 0 C488.04 0.53, 500.88 12.29, 500 32 M468 0 C489.53 0.56, 498.67 12.4, 500 32 M500 32 C499.66 143.53, 499.49 256.95, 500 548 M500 32 C498.13 232.87, 498.43 433.75, 500 548 M500 548 C500.6 567.73, 489.82 578.28, 468 580 M500 548 C498.31 569.4, 490.27 580.81, 468 580 M468 580 C374.5 582.08, 280.46 582.09, 32 580 M468 580 C373.8 582.41, 279.68 582.09, 32 580 M32 580 C8.78 579.71, -0.18 569.86, 0 548 M32 580 C12.5 579.98, 2.16 569.43, 0 548 M0 548 C-1.79 399.89, -0.99 251.4, 0 32 M0 548 C-0.43 405.62, 0.06 262.47, 0 32 M0 32 C0.44 12.66, 9.12 -1.31, 32 0 M0 32 C-0.62 8.6, 11.68 2.27, 32 0" stroke="#2f9e44" stroke-width="1" fill="none"></path></g><g transform="translate(150 30) rotate(0 110 15)"><text x="110" y="20.631999999999998" font-family="Segoe UI Emoji" font-size="22px" fill="#2f9e44" text-anchor="middle" style="white-space: pre;" direction="ltr" dominant-baseline="alphabetic">Local Service Side</text></g><g stroke-opacity="0.2" fill-opacity="0.2" stroke-linecap="round" transform="translate(630 10) rotate(0 260 290)"><path d="M32 0 C133.86 -1.81, 231.12 -1.24, 488 0 C512.09 -2.71, 520.43 14.22, 520 32 C517.6 199.98, 517.05 368.76, 520 548 C517.73 572.64, 511.56 577.97, 488 580 C335.28 578.5, 183.26 577.94, 32 580 C7.68 577.22, 0.36 571.72, 0 548 C0.42 421.52, 1.74 298.26, 0 32 C2.2 9.91, 9.94 -0.48, 32 0" stroke="none" stroke-width="0" fill="#a5d8ff"></path><path d="M32 0 C123.61 0.02, 214.25 0.11, 488 0 M32 0 C156.12 0.48, 279.95 1.06, 488 0 M488 0 C508.04 0.53, 520.88 12.29, 520 32 M488 0 C509.53 0.56, 518.67 12.4, 520 32 M520 32 C519.66 143.53, 519.49 256.95, 520 548 M520 32 C518.13 232.87, 518.43 433.75, 520 548 M520 548 C520.6 567.73, 509.82 578.28, 488 580 M520 548 C518.31 569.4, 510.27 580.81, 488 580 M488 580 C390.15 582.03, 291.79 582.04, 32 580 M488 580 C389.49 582.34, 291.06 582.04, 32 580 M32 580 C8.78 579.71, -0.18 569.86, 0 548 M32 580 C12.5 579.98, 2.16 569.43, 0 548 M0 548 C-1.79 399.89, -0.99 251.4, 0 32 M0 548 C-0.43 405.62, 0.06 262.47, 0 32 M0 32 C0.44 12.66, 9.12 -1.31, 32 0 M0 32 C-0.62 8.6, 11.68 2.27, 32 0" stroke="#1971c2" stroke-width="1" fill="none"></path></g><g transform="translate(790 30) rotate(0 100 15)"><text x="100" y="20.631999999999998" font-family="Segoe UI Emoji" font-size="22px" fill="#1971c2" text-anchor="middle" style="white-space: pre;" direction="ltr" dominant-baseline="alphabetic">Public Network</text></g><g stroke-opacity="0.2" fill-opacity="0.2" stroke-linecap="round" transform="translate(1270 10) rotate(0 250 290)"><path d="M32 0 C129.56 -1.85, 222.22 -1.23, 468 0 C492.09 -2.71, 500.43 14.22, 500 32 C497.6 199.98, 497.05 368.76, 500 548 C497.73 572.64, 491.56 577.97, 468 580 C322.01 578.48, 176.76 577.87, 32 580 C7.68 577.22, 0.36 571.72, 0 548 C0.42 421.52, 1.74 298.26, 0 32 C2.2 9.91, 9.94 -0.48, 32 0" stroke="none" stroke-width="0" fill="#fff3bf"></path><path d="M32 0 C119.64 0.04, 206.24 0.14, 468 0 M32 0 C150.69 0.48, 269.06 1.1, 468 0 M468 0 C488.04 0.53, 500.88 12.29, 500 32 M468 0 C489.53 0.56, 498.67 12.4, 500 32 M500 32 C499.66 143.53, 499.49 256.95, 500 548 M500 32 C498.13 232.87, 498.43 433.75, 500 548 M500 548 C500.6 567.73, 489.82 578.28, 468 580 M500 548 C498.31 569.4, 490.27 580.81, 468 580 M468 580 C374.5 582.08, 280.46 582.09, 32 580 M468 580 C373.8 582.41, 279.68 582.09, 32 580 M32 580 C8.78 579.71, -0.18 569.86, 0 548 M32 580 C12.5 579.98, 2.16 569.43, 0 548 M0 548 C-1.79 399.89, -0.99 251.4, 0 32 M0 548 C-0.43 405.62, 0.06 262.47, 0 32 M0 32 C0.44 12.66, 9.12 -1.31, 32 0 M0 32 C-0.62 8.6, 11.68 2.27, 32 0" stroke="#e67700" stroke-width="1" fill="none"></path></g><g transform="translate(1390 30) rotate(0 130 15)"><text x="130" y="20.631999999999998" font-family="Segoe UI Emoji" font-size="22px" fill="#e67700" text-anchor="middle" style="white-space: pre;" direction="ltr" dominant-baseline="alphabetic">Remote Client Side</text></g><g stroke-linecap="round" transform="translate(40 120) rotate(0 80 30)"><path d="M15 0 C46.86 -0.77, 69.02 0.44, 145 0 C157.76 -2.71, 160.43 8.56, 160 15 C158.15 25, 156.76 37, 160 45 C157.73 58.31, 157.22 57.97, 145 60 C101.89 59.55, 60.25 58.35, 15 60 C2.02 57.22, 0.36 57.39, 0 45 C-2.03 35.29, 1.29 33.62, 0 15 C2.2 4.24, 4.27 -0.48, 15 0" stroke="none" stroke-width="0" fill="#d0bfff"></path><path d="M15 0 C41.86 0.7, 66.68 0.9, 145 0 M15 0 C50.56 -0.27, 85.49 0.95, 145 0 M145 0 C153.7 0.53, 160.88 6.63, 160 15 M145 0 C155.2 0.56, 158.67 6.73, 160 15 M160 15 C161.4 19.78, 160.96 29.28, 160 45 M160 15 C159.32 26.37, 160.07 37.78, 160 45 M160 45 C160.6 53.4, 155.48 58.28, 145 60 M160 45 C158.31 55.06, 155.94 60.81, 145 60 M145 60 C118.02 61.07, 89.96 61.09, 15 60 M145 60 C116.74 61.95, 88.65 61.31, 15 60 M15 60 C3.11 59.71, -0.18 55.53, 0 45 M15 60 C6.83 59.98, 2.16 55.1, 0 45 M0 45 C-0.94 36.11, 1.04 26.26, 0 15 M0 45 C-0.63 37.35, 0.59 27.74, 0 15 M0 15 C0.44 7, 3.45 -1.31, 15 0 M0 15 C-0.62 2.93, 6.01 2.27, 15 0" stroke="#7048e8" stroke-width="2" fill="none"></path></g><g transform="translate(75 136) rotate(0 45 14)"><text x="45" y="18.608" font-family="Segoe UI Emoji" font-size="18px" fill="#1e1e1e" text-anchor="middle" style="white-space: pre;" direction="ltr" dominant-baseline="alphabetic">Flutter UI</text></g><g transform="translate(218 138) rotate(0 12 12)"><text x="12" y="15.84" font-family="Segoe UI Emoji" font-size="15px" fill="#868e96" text-anchor="middle" style="white-space: pre;" direction="ltr" dominant-baseline="alphabetic">or</text></g><g stroke-linecap="round" transform="translate(260 110) rotate(0 110 35)"><path d="M17.5 0 C61.46 -1.28, 95.72 -0.07, 202.5 0 C216.93 -2.71, 220.43 9.39, 220 17.5 C218.11 29.13, 216.72 42.75, 220 52.5 C217.73 67.48, 216.39 67.97, 202.5 70 C140.94 69.09, 80.85 67.89, 17.5 70 C2.85 67.22, 0.36 66.56, 0 52.5 C-2 41.57, 1.32 38.68, 0 17.5 C2.2 5.08, 5.11 -0.48, 17.5 0" stroke="none" stroke-width="0" fill="#b2f2bb"></path><path d="M17.5 0 C55.36 0.59, 91.18 0.79, 202.5 0 M17.5 0 C68.02 -0.05, 117.91 1.17, 202.5 0 M202.5 0 C212.87 0.53, 220.88 7.46, 220 17.5 M202.5 0 C214.37 0.56, 218.67 7.56, 220 17.5 M220 17.5 C221.38 23.36, 220.94 33.96, 220 52.5 M220 17.5 C219.28 30.82, 220.03 44.18, 220 52.5 M220 52.5 C220.6 62.57, 214.65 68.28, 202.5 70 M220 52.5 C218.31 64.23, 215.1 70.81, 202.5 70 M202.5 70 C163.65 71.62, 123.73 71.64, 17.5 70 M202.5 70 C162.37 72.46, 122.41 71.81, 17.5 70 M17.5 70 C3.95 69.71, -0.18 64.69, 0 52.5 M17.5 70 C7.66 69.98, 2.16 64.26, 0 52.5 M0 52.5 C-0.97 42.18, 1.01 30.89, 0 17.5 M0 52.5 C-0.63 43.46, 0.58 32.48, 0 17.5 M0 17.5 C0.44 7.83, 4.28 -1.31, 17.5 0 M0 17.5 C-0.62 3.76, 6.85 2.27, 17.5 0" stroke="#2f9e44" stroke-width="2" fill="none"></path></g><g transform="translate(280 118) rotate(0 90 24)"><text x="90" y="16.608" font-family="Segoe UI Emoji" font-size="18px" fill="#1e1e1e" text-anchor="middle" style="white-space: pre;" direction="ltr" dominant-baseline="alphabetic">pb-mapper</text><text x="90" y="40.608000000000004" font-family="Segoe UI Emoji" font-size="18px" fill="#1e1e1e" text-anchor="middle" style="white-space: pre;" direction="ltr" dominant-baseline="alphabetic">server-cli</text></g><g stroke-linecap="round" transform="translate(130 430) rotate(0 140 50)"><path d="M25 0 C78.37 -1.45, 123.49 -0.42, 255 0 C274.43 -2.71, 280.43 11.89, 280 25 C277.98 41.51, 276.59 60.02, 280 75 C277.73 94.98, 273.89 97.97, 255 100 C178.27 98.91, 102.79 97.89, 25 100 C5.35 97.22, 0.36 94.06, 0 75 C-1.9 60.43, 1.41 53.89, 0 25 C2.2 7.58, 7.61 -0.48, 25 0" stroke="none" stroke-width="0" fill="#d3f9d8"></path><path d="M25 0 C71.73 0.42, 116.73 0.59, 255 0 M25 0 C87.73 0.11, 149.92 1.14, 255 0 M255 0 C270.37 0.53, 280.88 9.96, 280 25 M255 0 C271.87 0.56, 278.67 10.06, 280 25 M280 25 C281.31 34.13, 280.87 47.98, 280 75 M280 25 C279.16 44.16, 279.9 63.36, 280 75 M280 75 C280.6 90.07, 272.15 98.28, 255 100 M280 75 C278.31 91.73, 272.6 100.81, 255 100 M255 100 C206.29 101.75, 156.67 101.77, 25 100 M255 100 C205.19 102.44, 155.52 101.89, 25 100 M25 100 C6.45 99.71, -0.18 92.19, 0 75 M25 100 C10.16 99.98, 2.16 91.76, 0 75 M0 75 C-1.08 60.38, 0.9 44.79, 0 25 M0 75 C-0.65 61.82, 0.57 46.69, 0 25 M0 25 C0.44 10.33, 6.78 -1.31, 25 0 M0 25 C-0.62 6.26, 9.35 2.27, 25 0" stroke="#2f9e44" stroke-width="2" fill="none"></path></g><g transform="translate(165 442) rotate(0 105 36)"><text x="105" y="16.096" font-family="Segoe UI Emoji" font-size="16px" fill="#1e1e1e" text-anchor="middle" style="white-space: pre;" direction="ltr" dominant-baseline="alphabetic">Local Service</text><text x="105" y="40.096000000000004" font-family="Segoe UI Emoji" font-size="16px" fill="#1e1e1e" text-anchor="middle" style="white-space: pre;" direction="ltr" dominant-baseline="alphabetic">(e.g. Web Server)</text><text x="105" y="64.096" font-family="Segoe UI Emoji" font-size="16px" fill="#1e1e1e" text-anchor="middle" style="white-space: pre;" direction="ltr" dominant-baseline="alphabetic">localhost:8080</text></g><g stroke-linecap="round"><g transform="translate(350 425) rotate(0 0 -120)"><path d="M0 0 C2.37 -47.2, 1.39 -95.03, 0 -240 M0 0 C1.89 -65.93, 1.54 -130.2, 0 -240" stroke="#2f9e44" stroke-width="2" fill="none"></path></g><g transform="translate(350 425) rotate(0 0 -120)"><path d="M8.83 -216.61 C8.11 -220.31, 5.17 -224.79, 0 -240 M8.83 -216.61 C6.82 -223.79, 4 -228.94, 0 -240" stroke="#2f9e44" stroke-width="2" fill="none"></path></g><g transform="translate(350 425) rotate(0 0 -120)"><path d="M-8.27 -216.41 C-5.56 -220.18, -5.09 -224.7, 0 -240 M-8.27 -216.41 C-5.62 -223.58, -3.8 -228.78, 0 -240" stroke="#2f9e44" stroke-width="2" fill="none"></path></g></g><mask></mask><g transform="translate(360 300) rotate(0 35 12)"><text x="35" y="15.584" font-family="Segoe UI Emoji" font-size="14px" fill="#495057" text-anchor="middle" style="white-space: pre;" direction="ltr" dominant-baseline="alphabetic">TCP/UDP</text></g><g stroke-opacity="0.4" fill-opacity="0.4" stroke-linecap="round" transform="translate(670 80) rotate(0 220 240)"><path d="M32 0 C116.69 -1.87, 195.5 -1.14, 408 0 C432.09 -2.71, 440.43 14.22, 440 32 C437.23 167.48, 436.47 304.03, 440 448 C437.73 472.64, 431.56 477.97, 408 480 C282.18 478.48, 157.25 477.76, 32 480 C7.68 477.22, 0.36 471.72, 0 448 C0.22 345.51, 2.01 247.36, 0 32 C2.2 9.91, 9.94 -0.48, 32 0" stroke="none" stroke-width="0" fill="#d0ebff"></path><path d="M32 0 C107.72 0.12, 182.21 0.24, 408 0 M32 0 C134.39 0.43, 236.4 1.17, 408 0 M408 0 C428.04 0.53, 440.88 12.29, 440 32 M408 0 C429.53 0.56, 438.67 12.4, 440 32 M440 32 C439.79 121.54, 439.56 213.63, 440 448 M440 32 C437.92 193.87, 438.33 355.76, 440 448 M440 448 C440.6 467.73, 429.82 478.28, 408 480 M440 448 C438.31 469.4, 430.27 480.81, 408 480 M408 480 C327.55 482.13, 246.44 482.14, 32 480 M408 480 C326.73 482.55, 245.56 482.16, 32 480 M32 480 C8.78 479.71, -0.18 469.86, 0 448 M32 480 C12.5 479.98, 2.16 469.43, 0 448 M0 448 C-2.02 328.54, -0.95 208.55, 0 32 M0 448 C-0.53 333.35, 0.13 217.66, 0 32 M0 32 C0.44 12.66, 9.12 -1.31, 32 0 M0 32 C-0.62 8.6, 11.68 2.27, 32 0" stroke="#1971c2" stroke-width="2" fill="none"></path></g><g transform="translate(720 95) rotate(0 170 15)"><text x="170" y="20.119999999999997" font-family="Segoe UI Emoji" font-size="20px" fill="#1971c2" text-anchor="middle" style="white-space: pre;" direction="ltr" dominant-baseline="alphabetic">pb-mapper-server :7666</text></g><g stroke-linecap="round" transform="translate(710 150) rotate(0 180 32.5)"><path d="M16.25 0 C90.54 -1.8, 158.15 -0.97, 343.75 0 C357.34 -2.71, 360.43 8.97, 360 16.25 C358.13 27.06, 356.74 39.88, 360 48.75 C357.73 62.89, 356.81 62.97, 343.75 65 C234.24 63.56, 125.74 62.73, 16.25 65 C2.43 62.22, 0.36 61.97, 0 48.75 C-2.01 38.43, 1.3 36.15, 0 16.25 C2.2 4.66, 4.69 -0.48, 16.25 0" stroke="none" stroke-width="0" fill="#a5d8ff"></path><path d="M16.25 0 C82.34 0.21, 147.03 0.34, 343.75 0 M16.25 0 C105.46 0.35, 194.25 1.19, 343.75 0 M343.75 0 C353.29 0.53, 360.88 7.04, 360 16.25 M343.75 0 C354.78 0.56, 358.67 7.15, 360 16.25 M360 16.25 C361.39 21.57, 360.95 31.62, 360 48.75 M360 16.25 C359.3 28.59, 360.05 40.98, 360 48.75 M360 48.75 C360.6 57.98, 355.07 63.28, 343.75 65 M360 48.75 C358.31 59.65, 355.52 65.81, 343.75 65 M343.75 65 C273.84 67.08, 203.19 67.09, 16.25 65 M343.75 65 C272.93 67.59, 202.22 67.15, 16.25 65 M16.25 65 C3.53 64.71, -0.18 60.11, 0 48.75 M16.25 65 C7.25 64.98, 2.16 59.68, 0 48.75 M0 48.75 C-0.96 39.15, 1.02 28.58, 0 16.25 M0 48.75 C-0.63 40.4, 0.59 30.11, 0 16.25 M0 16.25 C0.44 7.41, 3.87 -1.31, 16.25 0 M0 16.25 C-0.62 3.35, 6.43 2.27, 16.25 0" stroke="#1971c2" stroke-width="2" fill="none"></path></g><g transform="translate(740 158) rotate(0 150 24)"><text x="150" y="15.584" font-family="Segoe UI Emoji" font-size="14px" fill="#1e1e1e" text-anchor="middle" style="white-space: pre;" direction="ltr" dominant-baseline="alphabetic">Service Registry</text><text x="150" y="39.584" font-family="Segoe UI Emoji" font-size="14px" fill="#1e1e1e" text-anchor="middle" style="white-space: pre;" direction="ltr" dominant-baseline="alphabetic">(key → connection mapping)</text></g><g stroke-linecap="round" transform="translate(710 240) rotate(0 180 32.5)"><path d="M16.25 0 C90.54 -1.8, 158.15 -0.97, 343.75 0 C357.34 -2.71, 360.43 8.97, 360 16.25 C358.13 27.06, 356.74 39.88, 360 48.75 C357.73 62.89, 356.81 62.97, 343.75 65 C234.24 63.56, 125.74 62.73, 16.25 65 C2.43 62.22, 0.36 61.97, 0 48.75 C-2.01 38.43, 1.3 36.15, 0 16.25 C2.2 4.66, 4.69 -0.48, 16.25 0" stroke="none" stroke-width="0" fill="#a5d8ff"></path><path d="M16.25 0 C82.34 0.21, 147.03 0.34, 343.75 0 M16.25 0 C105.46 0.35, 194.25 1.19, 343.75 0 M343.75 0 C353.29 0.53, 360.88 7.04, 360 16.25 M343.75 0 C354.78 0.56, 358.67 7.15, 360 16.25 M360 16.25 C361.39 21.57, 360.95 31.62, 360 48.75 M360 16.25 C359.3 28.59, 360.05 40.98, 360 48.75 M360 48.75 C360.6 57.98, 355.07 63.28, 343.75 65 M360 48.75 C358.31 59.65, 355.52 65.81, 343.75 65 M343.75 65 C273.84 67.08, 203.19 67.09, 16.25 65 M343.75 65 C272.93 67.59, 202.22 67.15, 16.25 65 M16.25 65 C3.53 64.71, -0.18 60.11, 0 48.75 M16.25 65 C7.25 64.98, 2.16 59.68, 0 48.75 M0 48.75 C-0.96 39.15, 1.02 28.58, 0 16.25 M0 48.75 C-0.63 40.4, 0.59 30.11, 0 16.25 M0 16.25 C0.44 7.41, 3.87 -1.31, 16.25 0 M0 16.25 C-0.62 3.35, 6.43 2.27, 16.25 0" stroke="#1971c2" stroke-width="2" fill="none"></path></g><g transform="translate(740 248) rotate(0 150 24)"><text x="150" y="15.584" font-family="Segoe UI Emoji" font-size="14px" fill="#1e1e1e" text-anchor="middle" style="white-space: pre;" direction="ltr" dominant-baseline="alphabetic">Connection Manager</text><text x="150" y="39.584" font-family="Segoe UI Emoji" font-size="14px" fill="#1e1e1e" text-anchor="middle" style="white-space: pre;" direction="ltr" dominant-baseline="alphabetic">(registration &amp; subscription)</text></g><g stroke-linecap="round" transform="translate(710 330) rotate(0 180 32.5)"><path d="M16.25 0 C90.54 -1.8, 158.15 -0.97, 343.75 0 C357.34 -2.71, 360.43 8.97, 360 16.25 C358.13 27.06, 356.74 39.88, 360 48.75 C357.73 62.89, 356.81 62.97, 343.75 65 C234.24 63.56, 125.74 62.73, 16.25 65 C2.43 62.22, 0.36 61.97, 0 48.75 C-2.01 38.43, 1.3 36.15, 0 16.25 C2.2 4.66, 4.69 -0.48, 16.25 0" stroke="none" stroke-width="0" fill="#a5d8ff"></path><path d="M16.25 0 C82.34 0.21, 147.03 0.34, 343.75 0 M16.25 0 C105.46 0.35, 194.25 1.19, 343.75 0 M343.75 0 C353.29 0.53, 360.88 7.04, 360 16.25 M343.75 0 C354.78 0.56, 358.67 7.15, 360 16.25 M360 16.25 C361.39 21.57, 360.95 31.62, 360 48.75 M360 16.25 C359.3 28.59, 360.05 40.98, 360 48.75 M360 48.75 C360.6 57.98, 355.07 63.28, 343.75 65 M360 48.75 C358.31 59.65, 355.52 65.81, 343.75 65 M343.75 65 C273.84 67.08, 203.19 67.09, 16.25 65 M343.75 65 C272.93 67.59, 202.22 67.15, 16.25 65 M16.25 65 C3.53 64.71, -0.18 60.11, 0 48.75 M16.25 65 C7.25 64.98, 2.16 59.68, 0 48.75 M0 48.75 C-0.96 39.15, 1.02 28.58, 0 16.25 M0 48.75 C-0.63 40.4, 0.59 30.11, 0 16.25 M0 16.25 C0.44 7.41, 3.87 -1.31, 16.25 0 M0 16.25 C-0.62 3.35, 6.43 2.27, 16.25 0" stroke="#1971c2" stroke-width="2" fill="none"></path></g><g transform="translate(740 338) rotate(0 150 24)"><text x="150" y="15.584" font-family="Segoe UI Emoji" font-size="14px" fill="#1e1e1e" text-anchor="middle" style="white-space: pre;" direction="ltr" dominant-baseline="alphabetic">Stream Forwarder</text><text x="150" y="39.584" font-family="Segoe UI Emoji" font-size="14px" fill="#1e1e1e" text-anchor="middle" style="white-space: pre;" direction="ltr" dominant-baseline="alphabetic">(bidirectional data relay)</text></g><g stroke-linecap="round" transform="translate(710 420) rotate(0 180 32.5)"><path d="M16.25 0 C90.54 -1.8, 158.15 -0.97, 343.75 0 C357.34 -2.71, 360.43 8.97, 360 16.25 C358.13 27.06, 356.74 39.88, 360 48.75 C357.73 62.89, 356.81 62.97, 343.75 65 C234.24 63.56, 125.74 62.73, 16.25 65 C2.43 62.22, 0.36 61.97, 0 48.75 C-2.01 38.43, 1.3 36.15, 0 16.25 C2.2 4.66, 4.69 -0.48, 16.25 0" stroke="none" stroke-width="0" fill="#a5d8ff"></path><path d="M16.25 0 C82.34 0.21, 147.03 0.34, 343.75 0 M16.25 0 C105.46 0.35, 194.25 1.19, 343.75 0 M343.75 0 C353.29 0.53, 360.88 7.04, 360 16.25 M343.75 0 C354.78 0.56, 358.67 7.15, 360 16.25 M360 16.25 C361.39 21.57, 360.95 31.62, 360 48.75 M360 16.25 C359.3 28.59, 360.05 40.98, 360 48.75 M360 48.75 C360.6 57.98, 355.07 63.28, 343.75 65 M360 48.75 C358.31 59.65, 355.52 65.81, 343.75 65 M343.75 65 C273.84 67.08, 203.19 67.09, 16.25 65 M343.75 65 C272.93 67.59, 202.22 67.15, 16.25 65 M16.25 65 C3.53 64.71, -0.18 60.11, 0 48.75 M16.25 65 C7.25 64.98, 2.16 59.68, 0 48.75 M0 48.75 C-0.96 39.15, 1.02 28.58, 0 16.25 M0 48.75 C-0.63 40.4, 0.59 30.11, 0 16.25 M0 16.25 C0.44 7.41, 3.87 -1.31, 16.25 0 M0 16.25 C-0.62 3.35, 6.43 2.27, 16.25 0" stroke="#1971c2" stroke-width="2" fill="none"></path></g><g transform="translate(740 428) rotate(0 150 24)"><text x="150" y="15.584" font-family="Segoe UI Emoji" font-size="14px" fill="#1e1e1e" text-anchor="middle" style="white-space: pre;" direction="ltr" dominant-baseline="alphabetic">Keep-Alive &amp; Encryption</text><text x="150" y="39.584" font-family="Segoe UI Emoji" font-size="14px" fill="#1e1e1e" text-anchor="middle" style="white-space: pre;" direction="ltr" dominant-baseline="alphabetic">(AES-256-GCM via ring)</text></g><g stroke-linecap="round" transform="translate(710 510) rotate(0 180 17.5)"><path d="M8.75 0 C86.25 -1.83, 157.33 -1.03, 351.25 0 C359.84 -2.71, 360.43 6.47, 360 8.75 C358.46 14.65, 357.24 22.31, 360 26.25 C357.73 35.39, 359.31 32.97, 351.25 35 C236.7 33.53, 123.11 32.73, 8.75 35 C-0.07 32.22, 0.36 34.47, 0 26.25 C-1.83 19.88, 1.07 20.55, 0 8.75 C2.2 2.16, 2.19 -0.48, 8.75 0" stroke="none" stroke-width="0" fill="#a5d8ff"></path><path d="M8.75 0 C77.82 0.18, 145.54 0.31, 351.25 0 M8.75 0 C102.04 0.38, 194.91 1.19, 351.25 0 M351.25 0 C355.79 0.53, 360.88 4.54, 360 8.75 M351.25 0 C357.28 0.56, 358.67 4.65, 360 8.75 M360 8.75 C361.26 11.03, 360.88 17.44, 360 26.25 M360 8.75 C359.48 15.29, 360.13 21.87, 360 26.25 M360 26.25 C360.6 30.48, 357.57 33.28, 351.25 35 M360 26.25 C358.31 32.15, 358.02 35.81, 351.25 35 M351.25 35 C278.08 37.1, 204.2 37.12, 8.75 35 M351.25 35 C277.2 37.59, 203.26 37.16, 8.75 35 M8.75 35 C1.03 34.71, -0.18 32.61, 0 26.25 M8.75 35 C4.75 34.98, 2.16 32.18, 0 26.25 M0 26.25 C-0.76 20.98, 0.98 14.87, 0 8.75 M0 26.25 C-0.54 21.97, 0.52 15.99, 0 8.75 M0 8.75 C0.44 4.91, 1.37 -1.31, 8.75 0 M0 8.75 C-0.62 0.85, 3.93 2.27, 8.75 0" stroke="#1971c2" stroke-width="2" fill="none"></path></g><g transform="translate(740 516) rotate(0 150 12)"><text x="150" y="15.328" font-family="Segoe UI Emoji" font-size="13px" fill="#1e1e1e" text-anchor="middle" style="white-space: pre;" direction="ltr" dominant-baseline="alphabetic">Protocol (JSON + checksum framing)</text></g><g stroke-linecap="round" transform="translate(1300 110) rotate(0 110 35)"><path d="M17.5 0 C61.46 -1.28, 95.72 -0.07, 202.5 0 C216.93 -2.71, 220.43 9.39, 220 17.5 C218.11 29.13, 216.72 42.75, 220 52.5 C217.73 67.48, 216.39 67.97, 202.5 70 C140.94 69.09, 80.85 67.89, 17.5 70 C2.85 67.22, 0.36 66.56, 0 52.5 C-2 41.57, 1.32 38.68, 0 17.5 C2.2 5.08, 5.11 -0.48, 17.5 0" stroke="none" stroke-width="0" fill="#fff3bf"></path><path d="M17.5 0 C55.36 0.59, 91.18 0.79, 202.5 0 M17.5 0 C68.02 -0.05, 117.91 1.17, 202.5 0 M202.5 0 C212.87 0.53, 220.88 7.46, 220 17.5 M202.5 0 C214.37 0.56, 218.67 7.56, 220 17.5 M220 17.5 C221.38 23.36, 220.94 33.96, 220 52.5 M220 17.5 C219.28 30.82, 220.03 44.18, 220 52.5 M220 52.5 C220.6 62.57, 214.65 68.28, 202.5 70 M220 52.5 C218.31 64.23, 215.1 70.81, 202.5 70 M202.5 70 C163.65 71.62, 123.73 71.64, 17.5 70 M202.5 70 C162.37 72.46, 122.41 71.81, 17.5 70 M17.5 70 C3.95 69.71, -0.18 64.69, 0 52.5 M17.5 70 C7.66 69.98, 2.16 64.26, 0 52.5 M0 52.5 C-0.97 42.18, 1.01 30.89, 0 17.5 M0 52.5 C-0.63 43.46, 0.58 32.48, 0 17.5 M0 17.5 C0.44 7.83, 4.28 -1.31, 17.5 0 M0 17.5 C-0.62 3.76, 6.85 2.27, 17.5 0" stroke="#e67700" stroke-width="2" fill="none"></path></g><g transform="translate(1320 118) rotate(0 90 24)"><text x="90" y="16.608" font-family="Segoe UI Emoji" font-size="18px" fill="#1e1e1e" text-anchor="middle" style="white-space: pre;" direction="ltr" dominant-baseline="alphabetic">pb-mapper</text><text x="90" y="40.608000000000004" font-family="Segoe UI Emoji" font-size="18px" fill="#1e1e1e" text-anchor="middle" style="white-space: pre;" direction="ltr" dominant-baseline="alphabetic">client-cli</text></g><g transform="translate(1538 138) rotate(0 12 12)"><text x="12" y="15.84" font-family="Segoe UI Emoji" font-size="15px" fill="#868e96" text-anchor="middle" style="white-space: pre;" direction="ltr" dominant-baseline="alphabetic">or</text></g><g stroke-linecap="round" transform="translate(1580 120) rotate(0 80 30)"><path d="M15 0 C46.86 -0.77, 69.02 0.44, 145 0 C157.76 -2.71, 160.43 8.56, 160 15 C158.15 25, 156.76 37, 160 45 C157.73 58.31, 157.22 57.97, 145 60 C101.89 59.55, 60.25 58.35, 15 60 C2.02 57.22, 0.36 57.39, 0 45 C-2.03 35.29, 1.29 33.62, 0 15 C2.2 4.24, 4.27 -0.48, 15 0" stroke="none" stroke-width="0" fill="#d0bfff"></path><path d="M15 0 C41.86 0.7, 66.68 0.9, 145 0 M15 0 C50.56 -0.27, 85.49 0.95, 145 0 M145 0 C153.7 0.53, 160.88 6.63, 160 15 M145 0 C155.2 0.56, 158.67 6.73, 160 15 M160 15 C161.4 19.78, 160.96 29.28, 160 45 M160 15 C159.32 26.37, 160.07 37.78, 160 45 M160 45 C160.6 53.4, 155.48 58.28, 145 60 M160 45 C158.31 55.06, 155.94 60.81, 145 60 M145 60 C118.02 61.07, 89.96 61.09, 15 60 M145 60 C116.74 61.95, 88.65 61.31, 15 60 M15 60 C3.11 59.71, -0.18 55.53, 0 45 M15 60 C6.83 59.98, 2.16 55.1, 0 45 M0 45 C-0.94 36.11, 1.04 26.26, 0 15 M0 45 C-0.63 37.35, 0.59 27.74, 0 15 M0 15 C0.44 7, 3.45 -1.31, 15 0 M0 15 C-0.62 2.93, 6.01 2.27, 15 0" stroke="#7048e8" stroke-width="2" fill="none"></path></g><g transform="translate(1615 136) rotate(0 45 14)"><text x="45" y="18.608" font-family="Segoe UI Emoji" font-size="18px" fill="#1e1e1e" text-anchor="middle" style="white-space: pre;" direction="ltr" dominant-baseline="alphabetic">Flutter UI</text></g><g stroke-linecap="round" transform="translate(1370 430) rotate(0 140 50)"><path d="M25 0 C78.37 -1.45, 123.49 -0.42, 255 0 C274.43 -2.71, 280.43 11.89, 280 25 C277.98 41.51, 276.59 60.02, 280 75 C277.73 94.98, 273.89 97.97, 255 100 C178.27 98.91, 102.79 97.89, 25 100 C5.35 97.22, 0.36 94.06, 0 75 C-1.9 60.43, 1.41 53.89, 0 25 C2.2 7.58, 7.61 -0.48, 25 0" stroke="none" stroke-width="0" fill="#ffec99"></path><path d="M25 0 C71.73 0.42, 116.73 0.59, 255 0 M25 0 C87.73 0.11, 149.92 1.14, 255 0 M255 0 C270.37 0.53, 280.88 9.96, 280 25 M255 0 C271.87 0.56, 278.67 10.06, 280 25 M280 25 C281.31 34.13, 280.87 47.98, 280 75 M280 25 C279.16 44.16, 279.9 63.36, 280 75 M280 75 C280.6 90.07, 272.15 98.28, 255 100 M280 75 C278.31 91.73, 272.6 100.81, 255 100 M255 100 C206.29 101.75, 156.67 101.77, 25 100 M255 100 C205.19 102.44, 155.52 101.89, 25 100 M25 100 C6.45 99.71, -0.18 92.19, 0 75 M25 100 C10.16 99.98, 2.16 91.76, 0 75 M0 75 C-1.08 60.38, 0.9 44.79, 0 25 M0 75 C-0.65 61.82, 0.57 46.69, 0 25 M0 25 C0.44 10.33, 6.78 -1.31, 25 0 M0 25 C-0.62 6.26, 9.35 2.27, 25 0" stroke="#e67700" stroke-width="2" fill="none"></path></g><g transform="translate(1405 442) rotate(0 105 36)"><text x="105" y="16.096" font-family="Segoe UI Emoji" font-size="16px" fill="#1e1e1e" text-anchor="middle" style="white-space: pre;" direction="ltr" dominant-baseline="alphabetic">Local App</text><text x="105" y="40.096000000000004" font-family="Segoe UI Emoji" font-size="16px" fill="#1e1e1e" text-anchor="middle" style="white-space: pre;" direction="ltr" dominant-baseline="alphabetic">(e.g. Browser)</text><text x="105" y="64.096" font-family="Segoe UI Emoji" font-size="16px" fill="#1e1e1e" text-anchor="middle" style="white-space: pre;" direction="ltr" dominant-baseline="alphabetic">localhost:3000</text></g><g stroke-linecap="round"><g transform="translate(1430 185) rotate(0 0 120)"><path d="M0 0 C-0.95 48.8, -1.93 96.97, 0 240 M0 0 C-1.57 64.62, -1.92 130.92, 0 240" stroke="#e67700" stroke-width="2" fill="none"></path></g><g transform="translate(1430 185) rotate(0 0 120)"><path d="M-8.86 216.62 C-6.42 222.24, -5.83 227.12, 0 240 M-8.86 216.62 C-6.45 222.23, -4.47 229.81, 0 240" stroke="#e67700" stroke-width="2" fill="none"></path></g><g transform="translate(1430 185) rotate(0 0 120)"><path d="M8.24 216.4 C7.26 222.1, 4.43 227.02, 0 240 M8.24 216.4 C5.99 222, 3.33 229.64, 0 240" stroke="#e67700" stroke-width="2" fill="none"></path></g></g><mask></mask><g transform="translate(1340 300) rotate(0 35 12)"><text x="35" y="15.584" font-family="Segoe UI Emoji" font-size="14px" fill="#495057" text-anchor="middle" style="white-space: pre;" direction="ltr" dominant-baseline="alphabetic">TCP/UDP</text></g><g stroke-linecap="round"><g transform="translate(485 128) rotate(0 90 0)"><path d="M0 0 C36.86 0.6, 71.68 0.8, 180 0 M0 0 C49.16 -0.07, 97.69 1.15, 180 0" stroke="#2f9e44" stroke-width="2" fill="none"></path></g><g transform="translate(485 128) rotate(0 90 0)"><path d="M156.57 8.73 C162.19 7.9, 165.7 6.35, 180 0 M156.57 8.73 C163.22 5.66, 169.16 4.5, 180 0" stroke="#2f9e44" stroke-width="2" fill="none"></path></g><g transform="translate(485 128) rotate(0 90 0)"><path d="M156.44 -8.37 C161.94 -5.78, 165.48 -3.91, 180 0 M156.44 -8.37 C162.98 -6.79, 168.96 -3.29, 180 0" stroke="#2f9e44" stroke-width="2" fill="none"></path></g></g><mask></mask><g transform="translate(490 98) rotate(0 95 12)"><text x="95" y="15.584" font-family="Segoe UI Emoji" font-size="14px" fill="#2f9e44" text-anchor="middle" style="white-space: pre;" direction="ltr" dominant-baseline="alphabetic">① Register (key='web')</text></g><g stroke-linecap="round"><g transform="translate(1295 128) rotate(0 -90 0)"><path d="M0 0 C-35.14 1.33, -72.32 1.53, -180 0 M0 0 C-48.76 -1.5, -98.15 -0.28, -180 0" stroke="#e67700" stroke-width="2" fill="none"></path></g><g transform="translate(1295 128) rotate(0 -90 0)"><path d="M-156.56 -8.7 C-160.46 -5.95, -166.33 -4.01, -180 0 M-156.56 -8.7 C-162.82 -7.21, -169.62 -3.63, -180 0" stroke="#e67700" stroke-width="2" fill="none"></path></g><g transform="translate(1295 128) rotate(0 -90 0)"><path d="M-156.46 8.4 C-160.24 7.74, -166.12 6.25, -180 0 M-156.46 8.4 C-162.59 5.24, -169.42 4.17, -180 0" stroke="#e67700" stroke-width="2" fill="none"></path></g></g><mask></mask><g transform="translate(1090 98) rotate(0 100 12)"><text x="100" y="15.584" font-family="Segoe UI Emoji" font-size="14px" fill="#e67700" text-anchor="middle" style="white-space: pre;" direction="ltr" dominant-baseline="alphabetic">② Subscribe (key='web')</text></g><g stroke-linecap="round"><g transform="translate(485 160) rotate(0 90 0)"><path d="M0 0 C36.86 0.6, 71.68 0.8, 180 0" stroke="#1971c2" stroke-width="2.5" fill="none" stroke-dasharray="8 10"></path></g><g transform="translate(485 160) rotate(0 90 0)"><path d="M156.56 8.69 C162.18 7.87, 165.69 6.33, 180 0" stroke="#1971c2" stroke-width="2.5" fill="none"></path></g><g transform="translate(485 160) rotate(0 90 0)"><path d="M156.46 -8.41 C161.95 -5.81, 165.49 -3.93, 180 0" stroke="#1971c2" stroke-width="2.5" fill="none"></path></g></g><mask></mask><g transform="translate(490 168) rotate(0 90 12)"><text x="90" y="15.584" font-family="Segoe UI Emoji" font-size="14px" fill="#1971c2" text-anchor="middle" style="white-space: pre;" direction="ltr" dominant-baseline="alphabetic">③ Data Forwarding ↔</text></g><g stroke-linecap="round"><g transform="translate(1115 160) rotate(0 90 0)"><path d="M0 0 C36.86 0.6, 71.68 0.8, 180 0" stroke="#1971c2" stroke-width="2.5" fill="none" stroke-dasharray="8 10"></path></g><g transform="translate(1115 160) rotate(0 90 0)"><path d="M156.56 8.69 C162.18 7.87, 165.69 6.33, 180 0" stroke="#1971c2" stroke-width="2.5" fill="none"></path></g><g transform="translate(1115 160) rotate(0 90 0)"><path d="M156.46 -8.41 C161.95 -5.81, 165.49 -3.93, 180 0" stroke="#1971c2" stroke-width="2.5" fill="none"></path></g></g><mask></mask><g transform="translate(1110 168) rotate(0 90 12)"><text x="90" y="15.584" font-family="Segoe UI Emoji" font-size="14px" fill="#1971c2" text-anchor="middle" style="white-space: pre;" direction="ltr" dominant-baseline="alphabetic">③ Data Forwarding ↔</text></g><g stroke-opacity="0.2" fill-opacity="0.2" stroke-linecap="round" transform="translate(10 670) rotate(0 570 90)"><path d="M32 0 C270.01 -3.87, 504.14 -3.38, 1108 0 C1132.09 -2.71, 1140.43 14.22, 1140 32 C1137.42 69.98, 1136.02 109.96, 1140 148 C1137.73 172.64, 1131.56 177.97, 1108 180 C747.28 176.67, 387.15 176.19, 32 180 C7.68 177.22, 0.36 171.72, 0 148 C-1.48 117.37, 1.83 94.78, 0 32 C2.2 9.91, 9.94 -0.48, 32 0" stroke="none" stroke-width="0" fill="#ffe3e3"></path><path d="M32 0 C247.55 -0.49, 462.28 -0.41, 1108 0 M32 0 C324.74 1.39, 617.24 1.88, 1108 0 M1108 0 C1128.04 0.53, 1140.88 12.29, 1140 32 M1108 0 C1129.53 0.56, 1138.67 12.4, 1140 32 M1140 32 C1141 55.48, 1140.56 83.69, 1140 148 M1140 32 C1138.61 76.87, 1139.36 121.78, 1140 148 M1140 148 C1140.6 167.73, 1129.82 178.28, 1108 180 M1140 148 C1138.31 169.4, 1130.27 180.81, 1108 180 M1108 180 C876.36 184.17, 644.29 184.18, 32 180 M1108 180 C875.7 184.26, 643.46 184, 32 180 M32 180 C8.78 179.71, -0.18 169.86, 0 148 M32 180 C12.5 179.98, 2.16 169.43, 0 148 M0 148 C-1.56 114.45, 0.42 79.93, 0 32 M0 148 C-0.71 116.57, 0.51 83.2, 0 32 M0 32 C0.44 12.66, 9.12 -1.31, 32 0 M0 32 C-0.62 8.6, 11.68 2.27, 32 0" stroke="#c92a2a" stroke-width="1" fill="none"></path></g><g transform="translate(290 688) rotate(0 250 14)"><text x="250" y="18.608" font-family="Segoe UI Emoji" font-size="18px" fill="#c92a2a" text-anchor="middle" style="white-space: pre;" direction="ltr" dominant-baseline="alphabetic">Example: Access Home Web Server Remotely</text></g><g stroke-linecap="round" transform="translate(40 740) rotate(0 75 30)"><path d="M15 0 C44.66 -0.67, 64.62 0.54, 135 0 C147.76 -2.71, 150.43 8.56, 150 15 C148.15 25, 146.76 37, 150 45 C147.73 58.31, 147.22 57.97, 135 60 C95.25 59.63, 56.96 58.43, 15 60 C2.02 57.22, 0.36 57.39, 0 45 C-2.03 35.29, 1.29 33.62, 0 15 C2.2 4.24, 4.27 -0.48, 15 0" stroke="none" stroke-width="0" fill="#ffc9c9"></path><path d="M15 0 C39.86 0.72, 62.68 0.92, 135 0 M15 0 C47.84 -0.31, 80.05 0.91, 135 0 M135 0 C143.7 0.53, 150.88 6.63, 150 15 M135 0 C145.2 0.56, 148.67 6.73, 150 15 M150 15 C151.4 19.78, 150.96 29.28, 150 45 M150 15 C149.32 26.37, 150.07 37.78, 150 45 M150 45 C150.6 53.4, 145.48 58.28, 135 60 M150 45 C148.31 55.06, 145.94 60.81, 135 60 M135 60 C110.17 60.97, 84.27 60.99, 15 60 M135 60 C108.9 61.86, 82.97 61.22, 15 60 M15 60 C3.11 59.71, -0.18 55.53, 0 45 M15 60 C6.83 59.98, 2.16 55.1, 0 45 M0 45 C-0.94 36.11, 1.04 26.26, 0 15 M0 45 C-0.63 37.35, 0.59 27.74, 0 15 M0 15 C0.44 7, 3.45 -1.31, 15 0 M0 15 C-0.62 2.93, 6.01 2.27, 15 0" stroke="#c92a2a" stroke-width="2" fill="none"></path></g><g transform="translate(65 748) rotate(0 50 20)"><text x="50" y="13.584" font-family="Segoe UI Emoji" font-size="14px" fill="#1e1e1e" text-anchor="middle" style="white-space: pre;" direction="ltr" dominant-baseline="alphabetic">Browser</text><text x="50" y="33.584" font-family="Segoe UI Emoji" font-size="14px" fill="#1e1e1e" text-anchor="middle" style="white-space: pre;" direction="ltr" dominant-baseline="alphabetic">:3000</text></g><g stroke-linecap="round" transform="translate(290 740) rotate(0 75 30)"><path d="M15 0 C44.66 -0.67, 64.62 0.54, 135 0 C147.76 -2.71, 150.43 8.56, 150 15 C148.15 25, 146.76 37, 150 45 C147.73 58.31, 147.22 57.97, 135 60 C95.25 59.63, 56.96 58.43, 15 60 C2.02 57.22, 0.36 57.39, 0 45 C-2.03 35.29, 1.29 33.62, 0 15 C2.2 4.24, 4.27 -0.48, 15 0" stroke="none" stroke-width="0" fill="#fff3bf"></path><path d="M15 0 C39.86 0.72, 62.68 0.92, 135 0 M15 0 C47.84 -0.31, 80.05 0.91, 135 0 M135 0 C143.7 0.53, 150.88 6.63, 150 15 M135 0 C145.2 0.56, 148.67 6.73, 150 15 M150 15 C151.4 19.78, 150.96 29.28, 150 45 M150 15 C149.32 26.37, 150.07 37.78, 150 45 M150 45 C150.6 53.4, 145.48 58.28, 135 60 M150 45 C148.31 55.06, 145.94 60.81, 135 60 M135 60 C110.17 60.97, 84.27 60.99, 15 60 M135 60 C108.9 61.86, 82.97 61.22, 15 60 M15 60 C3.11 59.71, -0.18 55.53, 0 45 M15 60 C6.83 59.98, 2.16 55.1, 0 45 M0 45 C-0.94 36.11, 1.04 26.26, 0 15 M0 45 C-0.63 37.35, 0.59 27.74, 0 15 M0 15 C0.44 7, 3.45 -1.31, 15 0 M0 15 C-0.62 2.93, 6.01 2.27, 15 0" stroke="#e67700" stroke-width="2" fill="none"></path></g><g transform="translate(320 758) rotate(0 45 12)"><text x="45" y="15.584" font-family="Segoe UI Emoji" font-size="14px" fill="#1e1e1e" text-anchor="middle" style="white-space: pre;" direction="ltr" dominant-baseline="alphabetic">client-cli</text></g><g stroke-linecap="round" transform="translate(540 740) rotate(0 80 30)"><path d="M15 0 C46.86 -0.77, 69.02 0.44, 145 0 C157.76 -2.71, 160.43 8.56, 160 15 C158.15 25, 156.76 37, 160 45 C157.73 58.31, 157.22 57.97, 145 60 C101.89 59.55, 60.25 58.35, 15 60 C2.02 57.22, 0.36 57.39, 0 45 C-2.03 35.29, 1.29 33.62, 0 15 C2.2 4.24, 4.27 -0.48, 15 0" stroke="none" stroke-width="0" fill="#d0ebff"></path><path d="M15 0 C41.86 0.7, 66.68 0.9, 145 0 M15 0 C50.56 -0.27, 85.49 0.95, 145 0 M145 0 C153.7 0.53, 160.88 6.63, 160 15 M145 0 C155.2 0.56, 158.67 6.73, 160 15 M160 15 C161.4 19.78, 160.96 29.28, 160 45 M160 15 C159.32 26.37, 160.07 37.78, 160 45 M160 45 C160.6 53.4, 155.48 58.28, 145 60 M160 45 C158.31 55.06, 155.94 60.81, 145 60 M145 60 C118.02 61.07, 89.96 61.09, 15 60 M145 60 C116.74 61.95, 88.65 61.31, 15 60 M15 60 C3.11 59.71, -0.18 55.53, 0 45 M15 60 C6.83 59.98, 2.16 55.1, 0 45 M0 45 C-0.94 36.11, 1.04 26.26, 0 15 M0 45 C-0.63 37.35, 0.59 27.74, 0 15 M0 15 C0.44 7, 3.45 -1.31, 15 0 M0 15 C-0.62 2.93, 6.01 2.27, 15 0" stroke="#1971c2" stroke-width="2" fill="none"></path></g><g transform="translate(560 748) rotate(0 60 20)"><text x="60" y="13.328" font-family="Segoe UI Emoji" font-size="13px" fill="#1e1e1e" text-anchor="middle" style="white-space: pre;" direction="ltr" dominant-baseline="alphabetic">pb-mapper</text><text x="60" y="33.328" font-family="Segoe UI Emoji" font-size="13px" fill="#1e1e1e" text-anchor="middle" style="white-space: pre;" direction="ltr" dominant-baseline="alphabetic">server :7666</text></g><g stroke-linecap="round" transform="translate(800 740) rotate(0 75 30)"><path d="M15 0 C44.66 -0.67, 64.62 0.54, 135 0 C147.76 -2.71, 150.43 8.56, 150 15 C148.15 25, 146.76 37, 150 45 C147.73 58.31, 147.22 57.97, 135 60 C95.25 59.63, 56.96 58.43, 15 60 C2.02 57.22, 0.36 57.39, 0 45 C-2.03 35.29, 1.29 33.62, 0 15 C2.2 4.24, 4.27 -0.48, 15 0" stroke="none" stroke-width="0" fill="#d3f9d8"></path><path d="M15 0 C39.86 0.72, 62.68 0.92, 135 0 M15 0 C47.84 -0.31, 80.05 0.91, 135 0 M135 0 C143.7 0.53, 150.88 6.63, 150 15 M135 0 C145.2 0.56, 148.67 6.73, 150 15 M150 15 C151.4 19.78, 150.96 29.28, 150 45 M150 15 C149.32 26.37, 150.07 37.78, 150 45 M150 45 C150.6 53.4, 145.48 58.28, 135 60 M150 45 C148.31 55.06, 145.94 60.81, 135 60 M135 60 C110.17 60.97, 84.27 60.99, 15 60 M135 60 C108.9 61.86, 82.97 61.22, 15 60 M15 60 C3.11 59.71, -0.18 55.53, 0 45 M15 60 C6.83 59.98, 2.16 55.1, 0 45 M0 45 C-0.94 36.11, 1.04 26.26, 0 15 M0 45 C-0.63 37.35, 0.59 27.74, 0 15 M0 15 C0.44 7, 3.45 -1.31, 15 0 M0 15 C-0.62 2.93, 6.01 2.27, 15 0" stroke="#2f9e44" stroke-width="2" fill="none"></path></g><g transform="translate(830 758) rotate(0 45 12)"><text x="45" y="15.584" font-family="Segoe UI Emoji" font-size="14px" fill="#1e1e1e" text-anchor="middle" style="white-space: pre;" direction="ltr" dominant-baseline="alphabetic">server-cli</text></g><g stroke-linecap="round" transform="translate(1010 740) rotate(0 60 30)"><path d="M15 0 C38.06 -0.39, 51.42 0.82, 105 0 C117.76 -2.71, 120.43 8.56, 120 15 C118.15 25, 116.76 37, 120 45 C117.73 58.31, 117.22 57.97, 105 60 C75.31 59.88, 47.08 58.68, 15 60 C2.02 57.22, 0.36 57.39, 0 45 C-2.03 35.29, 1.29 33.62, 0 15 C2.2 4.24, 4.27 -0.48, 15 0" stroke="none" stroke-width="0" fill="#b2f2bb"></path><path d="M15 0 C33.86 0.78, 50.68 0.98, 105 0 M15 0 C39.68 -0.43, 63.73 0.79, 105 0 M105 0 C113.7 0.53, 120.88 6.63, 120 15 M105 0 C115.2 0.56, 118.67 6.73, 120 15 M120 15 C121.4 19.78, 120.96 29.28, 120 45 M120 15 C119.32 26.37, 120.07 37.78, 120 45 M120 45 C120.6 53.4, 115.48 58.28, 105 60 M120 45 C118.31 55.06, 115.94 60.81, 105 60 M105 60 C86.64 60.68, 67.21 60.7, 15 60 M105 60 C85.37 61.59, 65.92 60.94, 15 60 M15 60 C3.11 59.71, -0.18 55.53, 0 45 M15 60 C6.83 59.98, 2.16 55.1, 0 45 M0 45 C-0.94 36.11, 1.04 26.26, 0 15 M0 45 C-0.63 37.35, 0.59 27.74, 0 15 M0 15 C0.44 7, 3.45 -1.31, 15 0 M0 15 C-0.62 2.93, 6.01 2.27, 15 0" stroke="#2f9e44" stroke-width="2" fill="none"></path></g><g transform="translate(1020 748) rotate(0 50 20)"><text x="50" y="13.328" font-family="Segoe UI Emoji" font-size="13px" fill="#1e1e1e" text-anchor="middle" style="white-space: pre;" direction="ltr" dominant-baseline="alphabetic">Web Server</text><text x="50" y="33.328" font-family="Segoe UI Emoji" font-size="13px" fill="#1e1e1e" text-anchor="middle" style="white-space: pre;" direction="ltr" dominant-baseline="alphabetic">:8080</text></g><g stroke-linecap="round"><g transform="translate(195 770) rotate(0 45 0)"><path d="M0 0 C18.86 0.78, 35.68 0.98, 90 0 M0 0 C24.68 -0.43, 48.73 0.79, 90 0" stroke="#c92a2a" stroke-width="2" fill="none"></path></g><g transform="translate(195 770) rotate(0 45 0)"><path d="M66.58 8.74 C72.19 7.91, 75.7 6.36, 90 0 M66.58 8.74 C73.22 5.67, 79.17 4.51, 90 0" stroke="#c92a2a" stroke-width="2" fill="none"></path></g><g transform="translate(195 770) rotate(0 45 0)"><path d="M66.44 -8.36 C71.94 -5.77, 75.47 -3.9, 90 0 M66.44 -8.36 C72.97 -6.78, 78.96 -3.29, 90 0" stroke="#c92a2a" stroke-width="2" fill="none"></path></g></g><mask></mask><g stroke-linecap="round"><g transform="translate(445 770) rotate(0 45 0)"><path d="M0 0 C18.86 0.78, 35.68 0.98, 90 0 M0 0 C24.68 -0.43, 48.73 0.79, 90 0" stroke="#c92a2a" stroke-width="2" fill="none"></path></g><g transform="translate(445 770) rotate(0 45 0)"><path d="M66.58 8.74 C72.19 7.91, 75.7 6.36, 90 0 M66.58 8.74 C73.22 5.67, 79.17 4.51, 90 0" stroke="#c92a2a" stroke-width="2" fill="none"></path></g><g transform="translate(445 770) rotate(0 45 0)"><path d="M66.44 -8.36 C71.94 -5.77, 75.47 -3.9, 90 0 M66.44 -8.36 C72.97 -6.78, 78.96 -3.29, 90 0" stroke="#c92a2a" stroke-width="2" fill="none"></path></g></g><mask></mask><g stroke-linecap="round"><g transform="translate(705 770) rotate(0 45 0)"><path d="M0 0 C18.86 0.78, 35.68 0.98, 90 0 M0 0 C24.68 -0.43, 48.73 0.79, 90 0" stroke="#c92a2a" stroke-width="2" fill="none"></path></g><g transform="translate(705 770) rotate(0 45 0)"><path d="M66.58 8.74 C72.19 7.91, 75.7 6.36, 90 0 M66.58 8.74 C73.22 5.67, 79.17 4.51, 90 0" stroke="#c92a2a" stroke-width="2" fill="none"></path></g><g transform="translate(705 770) rotate(0 45 0)"><path d="M66.44 -8.36 C71.94 -5.77, 75.47 -3.9, 90 0 M66.44 -8.36 C72.97 -6.78, 78.96 -3.29, 90 0" stroke="#c92a2a" stroke-width="2" fill="none"></path></g></g><mask></mask><g stroke-linecap="round"><g transform="translate(955 770) rotate(0 25 0)"><path d="M0 0 C10.86 0.86, 19.68 1.06, 50 0 M0 0 C13.8 -0.59, 26.97 0.63, 50 0" stroke="#c92a2a" stroke-width="2" fill="none"></path></g><g transform="translate(955 770) rotate(0 25 0)"><path d="M26.59 8.76 C32.2 7.93, 35.7 6.37, 50 0 M26.59 8.76 C33.23 5.69, 39.17 4.52, 50 0" stroke="#c92a2a" stroke-width="2" fill="none"></path></g><g transform="translate(955 770) rotate(0 25 0)"><path d="M26.43 -8.34 C31.93 -5.75, 35.47 -3.89, 50 0 M26.43 -8.34 C32.97 -6.76, 38.95 -3.28, 50 0" stroke="#c92a2a" stroke-width="2" fill="none"></path></g></g><mask></mask><g transform="translate(30 810) rotate(0 100 12)"><text x="0" y="15.072" font-family="Segoe UI Emoji" font-size="12px" fill="#868e96" text-anchor="start" style="white-space: pre;" direction="ltr" dominant-baseline="alphabetic">User visits localhost:3000</text></g><g transform="translate(937.65625 813.48828125) rotate(0 100 12)"><text x="200" y="15.072" font-family="Segoe UI Emoji" font-size="12px" fill="#868e96" text-anchor="end" style="white-space: pre;" direction="ltr" dominant-baseline="alphabetic">Reaches home server :8080</text></g><g stroke-opacity="0.2" fill-opacity="0.2" stroke-linecap="round" transform="translate(1270 670) rotate(0 250 155)"><path d="M32 0 C129.56 -1.85, 222.22 -1.23, 468 0 C492.09 -2.71, 500.43 14.22, 500 32 C496.96 112.23, 495.81 194.12, 500 278 C497.73 302.64, 491.56 307.97, 468 310 C322.01 308.48, 176.76 307.87, 32 310 C7.68 307.22, 0.36 301.72, 0 278 C-0.54 216.18, 2.18 160.97, 0 32 C2.2 9.91, 9.94 -0.48, 32 0" stroke="none" stroke-width="0" fill="#e9ecef"></path><path d="M32 0 C119.64 0.04, 206.24 0.14, 468 0 M32 0 C150.69 0.48, 269.06 1.1, 468 0 M468 0 C488.04 0.53, 500.88 12.29, 500 32 M468 0 C489.53 0.56, 498.67 12.4, 500 32 M500 32 C500.33 84.07, 499.97 140.02, 500 278 M500 32 C497.98 127.56, 498.6 223.16, 500 278 M500 278 C500.6 297.73, 489.82 308.28, 468 310 M500 278 C498.31 299.4, 490.27 310.81, 468 310 M468 310 C374.5 312.08, 280.46 312.09, 32 310 M468 310 C373.8 312.41, 279.68 312.09, 32 310 M32 310 C8.78 309.71, -0.18 299.86, 0 278 M32 310 C12.5 309.98, 2.16 299.43, 0 278 M0 278 C-2.06 207.21, -0.43 135.63, 0 32 M0 278 C-0.68 210.53, 0.32 141.45, 0 32 M0 32 C0.44 12.66, 9.12 -1.31, 32 0 M0 32 C-0.62 8.6, 11.68 2.27, 32 0" stroke="#495057" stroke-width="1" fill="none"></path></g><g transform="translate(1410 688) rotate(0 110 14)"><text x="110" y="18.608" font-family="Segoe UI Emoji" font-size="18px" fill="#495057" text-anchor="middle" style="white-space: pre;" direction="ltr" dominant-baseline="alphabetic">Code Module Structure</text></g><g stroke-opacity="0.7" fill-opacity="0.7" stroke-linecap="round" transform="translate(1290 735) rotate(0 110 16)"><path d="M8 0 C55.79 -1.31, 94.91 -0.23, 212 0 C220.09 -2.71, 220.43 6.22, 220 8 C218.59 13.4, 217.47 20.4, 220 24 C217.73 32.64, 219.56 29.97, 212 32 C144.02 31.04, 77.34 29.97, 8 32 C-0.32 29.22, 0.36 31.72, 0 24 C-1.67 18.18, 0.98 18.79, 0 8 C2.2 1.91, 1.94 -0.48, 8 0" stroke="none" stroke-width="0" fill="#d0ebff"></path><path d="M8 0 C49.57 0.49, 89.32 0.67, 212 0 M8 0 C63.66 0.02, 118.77 1.11, 212 0 M212 0 C216.04 0.53, 220.88 4.29, 220 8 M212 0 C217.53 0.56, 218.67 4.4, 220 8 M220 8 C221.16 10.08, 220.81 15.94, 220 24 M220 8 C219.52 13.98, 220.12 19.99, 220 24 M220 24 C220.6 27.73, 217.82 30.28, 212 32 M220 24 C218.31 29.4, 218.27 32.81, 212 32 M212 32 C168.94 33.61, 124.93 33.63, 8 32 M212 32 C167.79 34.35, 123.73 33.78, 8 32 M8 32 C0.78 31.71, -0.18 29.86, 0 24 M8 32 C4.5 31.98, 2.16 29.43, 0 24 M0 24 C-0.69 19.19, 0.89 13.6, 0 8 M0 24 C-0.5 20.09, 0.48 14.62, 0 8 M0 8 C0.44 4.66, 1.12 -1.31, 8 0 M0 8 C-0.62 0.6, 3.68 2.27, 8 0" stroke="#1971c2" stroke-width="2" fill="none"></path></g><g transform="translate(1302 742) rotate(0 98 10)"><text x="0" y="13.328" font-family="Segoe UI Emoji" font-size="13px" fill="#1e1e1e" text-anchor="start" style="white-space: pre;" direction="ltr" dominant-baseline="alphabetic">src/bin/ (binaries)</text></g><g stroke-opacity="0.7" fill-opacity="0.7" stroke-linecap="round" transform="translate(1530 735) rotate(0 110 16)"><path d="M8 0 C55.79 -1.31, 94.91 -0.23, 212 0 C220.09 -2.71, 220.43 6.22, 220 8 C218.59 13.4, 217.47 20.4, 220 24 C217.73 32.64, 219.56 29.97, 212 32 C144.02 31.04, 77.34 29.97, 8 32 C-0.32 29.22, 0.36 31.72, 0 24 C-1.67 18.18, 0.98 18.79, 0 8 C2.2 1.91, 1.94 -0.48, 8 0" stroke="none" stroke-width="0" fill="#d0ebff"></path><path d="M8 0 C49.57 0.49, 89.32 0.67, 212 0 M8 0 C63.66 0.02, 118.77 1.11, 212 0 M212 0 C216.04 0.53, 220.88 4.29, 220 8 M212 0 C217.53 0.56, 218.67 4.4, 220 8 M220 8 C221.16 10.08, 220.81 15.94, 220 24 M220 8 C219.52 13.98, 220.12 19.99, 220 24 M220 24 C220.6 27.73, 217.82 30.28, 212 32 M220 24 C218.31 29.4, 218.27 32.81, 212 32 M212 32 C168.94 33.61, 124.93 33.63, 8 32 M212 32 C167.79 34.35, 123.73 33.78, 8 32 M8 32 C0.78 31.71, -0.18 29.86, 0 24 M8 32 C4.5 31.98, 2.16 29.43, 0 24 M0 24 C-0.69 19.19, 0.89 13.6, 0 8 M0 24 C-0.5 20.09, 0.48 14.62, 0 8 M0 8 C0.44 4.66, 1.12 -1.31, 8 0 M0 8 C-0.62 0.6, 3.68 2.27, 8 0" stroke="#1971c2" stroke-width="2" fill="none"></path></g><g transform="translate(1542 742) rotate(0 98 10)"><text x="0" y="13.328" font-family="Segoe UI Emoji" font-size="13px" fill="#1e1e1e" text-anchor="start" style="white-space: pre;" direction="ltr" dominant-baseline="alphabetic">src/pb_server/ (server)</text></g><g stroke-opacity="0.7" fill-opacity="0.7" stroke-linecap="round" transform="translate(1290 785) rotate(0 110 16)"><path d="M8 0 C55.79 -1.31, 94.91 -0.23, 212 0 C220.09 -2.71, 220.43 6.22, 220 8 C218.59 13.4, 217.47 20.4, 220 24 C217.73 32.64, 219.56 29.97, 212 32 C144.02 31.04, 77.34 29.97, 8 32 C-0.32 29.22, 0.36 31.72, 0 24 C-1.67 18.18, 0.98 18.79, 0 8 C2.2 1.91, 1.94 -0.48, 8 0" stroke="none" stroke-width="0" fill="#d3f9d8"></path><path d="M8 0 C49.57 0.49, 89.32 0.67, 212 0 M8 0 C63.66 0.02, 118.77 1.11, 212 0 M212 0 C216.04 0.53, 220.88 4.29, 220 8 M212 0 C217.53 0.56, 218.67 4.4, 220 8 M220 8 C221.16 10.08, 220.81 15.94, 220 24 M220 8 C219.52 13.98, 220.12 19.99, 220 24 M220 24 C220.6 27.73, 217.82 30.28, 212 32 M220 24 C218.31 29.4, 218.27 32.81, 212 32 M212 32 C168.94 33.61, 124.93 33.63, 8 32 M212 32 C167.79 34.35, 123.73 33.78, 8 32 M8 32 C0.78 31.71, -0.18 29.86, 0 24 M8 32 C4.5 31.98, 2.16 29.43, 0 24 M0 24 C-0.69 19.19, 0.89 13.6, 0 8 M0 24 C-0.5 20.09, 0.48 14.62, 0 8 M0 8 C0.44 4.66, 1.12 -1.31, 8 0 M0 8 C-0.62 0.6, 3.68 2.27, 8 0" stroke="#2f9e44" stroke-width="2" fill="none"></path></g><g transform="translate(1302 792) rotate(0 98 10)"><text x="0" y="13.328" font-family="Segoe UI Emoji" font-size="13px" fill="#1e1e1e" text-anchor="start" style="white-space: pre;" direction="ltr" dominant-baseline="alphabetic">src/local/server/ (reg)</text></g><g stroke-opacity="0.7" fill-opacity="0.7" stroke-linecap="round" transform="translate(1530 785) rotate(0 110 16)"><path d="M8 0 C55.79 -1.31, 94.91 -0.23, 212 0 C220.09 -2.71, 220.43 6.22, 220 8 C218.59 13.4, 217.47 20.4, 220 24 C217.73 32.64, 219.56 29.97, 212 32 C144.02 31.04, 77.34 29.97, 8 32 C-0.32 29.22, 0.36 31.72, 0 24 C-1.67 18.18, 0.98 18.79, 0 8 C2.2 1.91, 1.94 -0.48, 8 0" stroke="none" stroke-width="0" fill="#ffec99"></path><path d="M8 0 C49.57 0.49, 89.32 0.67, 212 0 M8 0 C63.66 0.02, 118.77 1.11, 212 0 M212 0 C216.04 0.53, 220.88 4.29, 220 8 M212 0 C217.53 0.56, 218.67 4.4, 220 8 M220 8 C221.16 10.08, 220.81 15.94, 220 24 M220 8 C219.52 13.98, 220.12 19.99, 220 24 M220 24 C220.6 27.73, 217.82 30.28, 212 32 M220 24 C218.31 29.4, 218.27 32.81, 212 32 M212 32 C168.94 33.61, 124.93 33.63, 8 32 M212 32 C167.79 34.35, 123.73 33.78, 8 32 M8 32 C0.78 31.71, -0.18 29.86, 0 24 M8 32 C4.5 31.98, 2.16 29.43, 0 24 M0 24 C-0.69 19.19, 0.89 13.6, 0 8 M0 24 C-0.5 20.09, 0.48 14.62, 0 8 M0 8 C0.44 4.66, 1.12 -1.31, 8 0 M0 8 C-0.62 0.6, 3.68 2.27, 8 0" stroke="#e67700" stroke-width="2" fill="none"></path></g><g transform="translate(1542 792) rotate(0 98 10)"><text x="0" y="13.328" font-family="Segoe UI Emoji" font-size="13px" fill="#1e1e1e" text-anchor="start" style="white-space: pre;" direction="ltr" dominant-baseline="alphabetic">src/local/client/ (sub)</text></g><g stroke-opacity="0.7" fill-opacity="0.7" stroke-linecap="round" transform="translate(1290 835) rotate(0 110 16)"><path d="M8 0 C55.79 -1.31, 94.91 -0.23, 212 0 C220.09 -2.71, 220.43 6.22, 220 8 C218.59 13.4, 217.47 20.4, 220 24 C217.73 32.64, 219.56 29.97, 212 32 C144.02 31.04, 77.34 29.97, 8 32 C-0.32 29.22, 0.36 31.72, 0 24 C-1.67 18.18, 0.98 18.79, 0 8 C2.2 1.91, 1.94 -0.48, 8 0" stroke="none" stroke-width="0" fill="#e9ecef"></path><path d="M8 0 C49.57 0.49, 89.32 0.67, 212 0 M8 0 C63.66 0.02, 118.77 1.11, 212 0 M212 0 C216.04 0.53, 220.88 4.29, 220 8 M212 0 C217.53 0.56, 218.67 4.4, 220 8 M220 8 C221.16 10.08, 220.81 15.94, 220 24 M220 8 C219.52 13.98, 220.12 19.99, 220 24 M220 24 C220.6 27.73, 217.82 30.28, 212 32 M220 24 C218.31 29.4, 218.27 32.81, 212 32 M212 32 C168.94 33.61, 124.93 33.63, 8 32 M212 32 C167.79 34.35, 123.73 33.78, 8 32 M8 32 C0.78 31.71, -0.18 29.86, 0 24 M8 32 C4.5 31.98, 2.16 29.43, 0 24 M0 24 C-0.69 19.19, 0.89 13.6, 0 8 M0 24 C-0.5 20.09, 0.48 14.62, 0 8 M0 8 C0.44 4.66, 1.12 -1.31, 8 0 M0 8 C-0.62 0.6, 3.68 2.27, 8 0" stroke="#495057" stroke-width="2" fill="none"></path></g><g transform="translate(1302 842) rotate(0 98 10)"><text x="0" y="13.328" font-family="Segoe UI Emoji" font-size="13px" fill="#1e1e1e" text-anchor="start" style="white-space: pre;" direction="ltr" dominant-baseline="alphabetic">src/common/ (protocol)</text></g><g stroke-opacity="0.7" fill-opacity="0.7" stroke-linecap="round" transform="translate(1530 835) rotate(0 110 16)"><path d="M8 0 C55.79 -1.31, 94.91 -0.23, 212 0 C220.09 -2.71, 220.43 6.22, 220 8 C218.59 13.4, 217.47 20.4, 220 24 C217.73 32.64, 219.56 29.97, 212 32 C144.02 31.04, 77.34 29.97, 8 32 C-0.32 29.22, 0.36 31.72, 0 24 C-1.67 18.18, 0.98 18.79, 0 8 C2.2 1.91, 1.94 -0.48, 8 0" stroke="none" stroke-width="0" fill="#e9ecef"></path><path d="M8 0 C49.57 0.49, 89.32 0.67, 212 0 M8 0 C63.66 0.02, 118.77 1.11, 212 0 M212 0 C216.04 0.53, 220.88 4.29, 220 8 M212 0 C217.53 0.56, 218.67 4.4, 220 8 M220 8 C221.16 10.08, 220.81 15.94, 220 24 M220 8 C219.52 13.98, 220.12 19.99, 220 24 M220 24 C220.6 27.73, 217.82 30.28, 212 32 M220 24 C218.31 29.4, 218.27 32.81, 212 32 M212 32 C168.94 33.61, 124.93 33.63, 8 32 M212 32 C167.79 34.35, 123.73 33.78, 8 32 M8 32 C0.78 31.71, -0.18 29.86, 0 24 M8 32 C4.5 31.98, 2.16 29.43, 0 24 M0 24 C-0.69 19.19, 0.89 13.6, 0 8 M0 24 C-0.5 20.09, 0.48 14.62, 0 8 M0 8 C0.44 4.66, 1.12 -1.31, 8 0 M0 8 C-0.62 0.6, 3.68 2.27, 8 0" stroke="#495057" stroke-width="2" fill="none"></path></g><g transform="translate(1542 842) rotate(0 98 10)"><text x="0" y="13.328" font-family="Segoe UI Emoji" font-size="13px" fill="#1e1e1e" text-anchor="start" style="white-space: pre;" direction="ltr" dominant-baseline="alphabetic">src/utils/ (codec, addr)</text></g><g stroke-opacity="0.7" fill-opacity="0.7" stroke-linecap="round" transform="translate(1290 885) rotate(0 230 16)"><path d="M8 0 C107.28 -1.84, 201.78 -1.24, 452 0 C460.09 -2.71, 460.43 6.22, 460 8 C458.59 13.4, 457.47 20.4, 460 24 C457.73 32.64, 459.56 29.97, 452 32 C303.32 30.49, 155.36 29.9, 8 32 C-0.32 29.22, 0.36 31.72, 0 24 C-1.67 18.18, 0.98 18.79, 0 8 C2.2 1.91, 1.94 -0.48, 8 0" stroke="none" stroke-width="0" fill="#d0bfff"></path><path d="M8 0 C97.22 0.03, 185.45 0.13, 452 0 M8 0 C128.86 0.48, 249.42 1.08, 452 0 M452 0 C456.04 0.53, 460.88 4.29, 460 8 M452 0 C457.53 0.56, 458.67 4.4, 460 8 M460 8 C461.16 10.08, 460.81 15.94, 460 24 M460 8 C459.52 13.98, 460.12 19.99, 460 24 M460 24 C460.6 27.73, 457.82 30.28, 452 32 M460 24 C458.31 29.4, 458.27 32.81, 452 32 M452 32 C356.76 34.06, 260.99 34.07, 8 32 M452 32 C356.08 34.39, 260.23 34.07, 8 32 M8 32 C0.78 31.71, -0.18 29.86, 0 24 M8 32 C4.5 31.98, 2.16 29.43, 0 24 M0 24 C-0.69 19.19, 0.89 13.6, 0 8 M0 24 C-0.5 20.09, 0.48 14.62, 0 8 M0 8 C0.44 4.66, 1.12 -1.31, 8 0 M0 8 C-0.62 0.6, 3.68 2.27, 8 0" stroke="#7048e8" stroke-width="2" fill="none"></path></g><g transform="translate(1302 892) rotate(0 218 10)"><text x="0" y="13.328" font-family="Segoe UI Emoji" font-size="13px" fill="#1e1e1e" text-anchor="start" style="white-space: pre;" direction="ltr" dominant-baseline="alphabetic">ui/ (Flutter + FFI bridge to Rust backend)</text></g><g stroke-opacity="0.7" fill-opacity="0.7" stroke-linecap="round" transform="translate(1290 935) rotate(0 230 16)"><path d="M8 0 C107.28 -1.84, 201.78 -1.24, 452 0 C460.09 -2.71, 460.43 6.22, 460 8 C458.59 13.4, 457.47 20.4, 460 24 C457.73 32.64, 459.56 29.97, 452 32 C303.32 30.49, 155.36 29.9, 8 32 C-0.32 29.22, 0.36 31.72, 0 24 C-1.67 18.18, 0.98 18.79, 0 8 C2.2 1.91, 1.94 -0.48, 8 0" stroke="none" stroke-width="0" fill="#f1f3f5"></path><path d="M8 0 C97.22 0.03, 185.45 0.13, 452 0 M8 0 C128.86 0.48, 249.42 1.08, 452 0 M452 0 C456.04 0.53, 460.88 4.29, 460 8 M452 0 C457.53 0.56, 458.67 4.4, 460 8 M460 8 C461.16 10.08, 460.81 15.94, 460 24 M460 8 C459.52 13.98, 460.12 19.99, 460 24 M460 24 C460.6 27.73, 457.82 30.28, 452 32 M460 24 C458.31 29.4, 458.27 32.81, 452 32 M452 32 C356.76 34.06, 260.99 34.07, 8 32 M452 32 C356.08 34.39, 260.23 34.07, 8 32 M8 32 C0.78 31.71, -0.18 29.86, 0 24 M8 32 C4.5 31.98, 2.16 29.43, 0 24 M0 24 C-0.69 19.19, 0.89 13.6, 0 8 M0 24 C-0.5 20.09, 0.48 14.62, 0 8 M0 8 C0.44 4.66, 1.12 -1.31, 8 0 M0 8 C-0.62 0.6, 3.68 2.27, 8 0" stroke="#495057" stroke-width="2" fill="none"></path></g><g transform="translate(1302 942) rotate(0 218 10)"><text x="0" y="13.328" font-family="Segoe UI Emoji" font-size="13px" fill="#1e1e1e" text-anchor="start" style="white-space: pre;" direction="ltr" dominant-baseline="alphabetic">docker/ | services/ | scripts/ (deployment)</text></g></svg>